<svg width="40" height="40" viewBox="0 0 40 40" fill="none" xmlns="http://www.w3.org/2000/svg">
<rect width="40" height="40" rx="20" fill="white"/>
<path d="M25.1688 32H14.8312C13.0206 31.9973 11.2849 31.2769 10.0044 29.9968C8.72396 28.7166 8.00317 26.9811 8 25.1705V14.8312C8.00271 13.0203 8.7233 11.2843 10.0038 10.0038C11.2843 8.7233 13.0203 8.00271 14.8312 8H25.1688C26.9797 8.00271 28.7157 8.7233 29.9962 10.0038C31.2767 11.2843 31.9973 13.0203 32 14.8312V25.1705C31.9968 26.9811 31.276 28.7166 29.9956 29.9968C28.7151 31.2769 26.9794 31.9973 25.1688 32ZM14.8312 10.0576C13.5656 10.0589 12.3522 10.5623 11.4573 11.4573C10.5623 12.3522 10.0589 13.5656 10.0576 14.8312V25.1705C10.0616 26.4353 10.5659 27.6471 11.4602 28.5415C12.3546 29.4358 13.5664 29.9401 14.8312 29.9441H25.1688C26.4339 29.9405 27.6461 29.4365 28.5409 28.5421C29.4356 27.6477 29.9401 26.4356 29.9441 25.1705V14.8312C29.9401 13.5661 29.4356 12.354 28.5409 11.4596C27.6461 10.5652 26.4339 10.0612 25.1688 10.0576H14.8312Z" fill="black"/>
<path d="M20 26.1453C18.7846 26.1453 17.5964 25.7848 16.5858 25.1096C15.5752 24.4343 14.7875 23.4745 14.3224 22.3516C13.8573 21.2287 13.7356 19.9931 13.9727 18.801C14.2098 17.6089 14.7951 16.5139 15.6546 15.6544C16.514 14.795 17.609 14.2097 18.8011 13.9726C19.9932 13.7355 21.2288 13.8572 22.3517 14.3223C23.4747 14.7874 24.4344 15.5751 25.1097 16.5857C25.785 17.5963 26.1454 18.7844 26.1454 19.9999C26.1422 21.6288 25.4937 23.19 24.3419 24.3418C23.1901 25.4936 21.6289 26.1421 20 26.1453ZM20 15.9121C19.1915 15.9121 18.4012 16.1518 17.7289 16.601C17.0567 17.0502 16.5328 17.6886 16.2234 18.4355C15.914 19.1825 15.833 20.0044 15.9907 20.7974C16.1485 21.5903 16.5378 22.3187 17.1095 22.8904C17.6812 23.4621 18.4096 23.8514 19.2025 24.0091C19.9955 24.1669 20.8174 24.0859 21.5643 23.7765C22.3113 23.4671 22.9497 22.9432 23.3989 22.2709C23.8481 21.5987 24.0878 20.8084 24.0878 19.9999C24.0864 18.9161 23.6553 17.8772 22.889 17.1109C22.1227 16.3445 21.0837 15.9134 20 15.9121Z" fill="black"/>
<path d="M27.8866 13.5041C27.8866 13.7964 27.7999 14.0821 27.6375 14.3251C27.4751 14.5682 27.2443 14.7576 26.9743 14.8694C26.7043 14.9813 26.4072 15.0105 26.1205 14.9535C25.8338 14.8965 25.5705 14.7557 25.3639 14.5491C25.1572 14.3424 25.0164 14.0791 24.9594 13.7924C24.9024 13.5058 24.9317 13.2086 25.0435 12.9386C25.1554 12.6686 25.3448 12.4378 25.5878 12.2754C25.8308 12.113 26.1165 12.0264 26.4088 12.0264C26.6029 12.0261 26.7952 12.0642 26.9746 12.1384C27.154 12.2126 27.317 12.3214 27.4542 12.4587C27.5915 12.596 27.7003 12.759 27.7745 12.9384C27.8487 13.1177 27.8868 13.31 27.8866 13.5041Z" fill="black"/>
</svg>
