<svg width="187" height="111" viewBox="0 0 187 111" fill="none" xmlns="http://www.w3.org/2000/svg">
<rect width="186.493" height="110.087" fill="white"/>
<path d="M78.5922 33.4098C77.5341 34.0602 76.2333 34.3854 74.6896 34.3854C72.1486 34.3854 70.0672 33.5052 68.4454 31.7447C66.7543 29.9755 65.9087 27.5559 65.9087 24.4858C65.9087 21.3811 66.763 18.8921 68.4714 17.0188C70.1799 15.1456 72.4391 14.209 75.249 14.209C77.6859 14.209 79.6416 14.829 81.1159 16.0692C82.5989 17.3007 83.4488 18.84 83.6656 20.6873H79.7239C79.4204 19.3777 78.6789 18.4628 77.4995 17.9424C76.8404 17.6563 76.1075 17.5132 75.301 17.5132C73.7573 17.5132 72.4868 18.0986 71.4894 19.2693C70.5008 20.4314 70.0065 22.1833 70.0065 24.5248C70.0065 26.8838 70.5441 28.5532 71.6195 29.5332C72.6949 30.5132 73.9177 31.0032 75.288 31.0032C76.6322 31.0032 77.7336 30.6172 78.5922 29.8454C79.4508 29.0649 79.9798 28.0459 80.1792 26.7884H75.7433V23.5882H83.7306V33.8781H81.0768L80.6736 31.4845C79.9017 32.3951 79.2079 33.0369 78.5922 33.4098Z" fill="#1C1C1C"/>
<path d="M101.448 25.5005H92.1337V30.4308H102.749V33.8781H88.2181V14.7033H102.28V18.0986H92.1337V22.1703H101.448V25.5005Z" fill="#1C1C1C"/>
<path d="M120.336 14.7033V18.0986H114.599V33.8781H110.567V18.0986H104.804V14.7033H120.336Z" fill="#1C1C1C"/>
<path d="M96.3615 60.9365H89.2978L87.9709 64.8781H83.7821L90.6247 45.7033H95.1517L101.942 64.8781H97.5974L96.3615 60.9365ZM95.2428 57.6322L92.8492 50.0872L90.3775 57.6322H95.2428Z" fill="#1C1C1C"/>
<path d="M70.2604 88.3591H66.1236V95.8781H62.208V76.7033H71.6133C72.9575 76.7293 73.9895 76.8941 74.7094 77.1976C75.4378 77.5012 76.0536 77.9478 76.5566 78.5375C76.9729 79.0232 77.3024 79.5609 77.5452 80.1506C77.7881 80.7403 77.9095 81.4124 77.9095 82.1669C77.9095 83.0775 77.6797 83.9751 77.22 84.8597C76.7604 85.7357 76.0016 86.3557 74.9435 86.72C75.8281 87.0755 76.4525 87.5829 76.8168 88.242C77.1897 88.8924 77.3761 89.8898 77.3761 91.234V92.5219C77.3761 93.3978 77.4108 93.9918 77.4802 94.304C77.5843 94.7984 77.8271 95.1626 78.2087 95.3968V95.8781H73.7987C73.6773 95.4531 73.5906 95.1106 73.5386 94.8504C73.4345 94.3127 73.3781 93.762 73.3695 93.1983L73.3434 91.4161C73.3261 90.1933 73.1006 89.3781 72.667 88.9705C72.242 88.5629 71.4398 88.3591 70.2604 88.3591ZM72.693 84.8727C73.4909 84.5085 73.8898 83.7887 73.8898 82.7133C73.8898 81.5512 73.5039 80.7707 72.732 80.3717C72.2984 80.1463 71.648 80.0335 70.7807 80.0335H66.1236V85.185H70.6637C71.5656 85.185 72.242 85.0809 72.693 84.8727Z" fill="#1C1C1C"/>
<path d="M81.5904 76.7033H85.5711V95.8781H81.5904V76.7033Z" fill="#1C1C1C"/>
<path d="M98.1109 95.8781H89.8504V76.7033H98.1109C99.2991 76.7206 100.288 76.8594 101.077 77.1196C102.421 77.5619 103.51 78.3727 104.342 79.5522C105.01 80.5062 105.465 81.5382 105.708 82.6483C105.951 83.7583 106.072 84.8164 106.072 85.8224C106.072 88.3721 105.561 90.5315 104.537 92.3007C103.15 94.6856 101.008 95.8781 98.1109 95.8781ZM101.09 81.5946C100.474 80.5539 99.2557 80.0335 97.4345 80.0335H93.74V92.5479H97.4345C99.3251 92.5479 100.643 91.6156 101.389 89.751C101.797 88.7276 102.001 87.5092 102.001 86.0956C102.001 84.1443 101.697 82.6439 101.09 81.5946Z" fill="#1C1C1C"/>
<path d="M122.983 87.5005H113.669V92.4308H124.284V95.8781H109.753V76.7033H123.816V80.0986H113.669V84.1703H122.983V87.5005Z" fill="#1C1C1C"/>
</svg>
