<svg width="70" height="12" viewBox="0 0 70 12" fill="none" xmlns="http://www.w3.org/2000/svg">
<g clip-path="url(#clip0_1_1741)">
<path d="M7.52325 4.02053L6.45054 0.515917C6.23892 -0.171972 5.26108 -0.171972 5.05675 0.515917L3.97675 4.02053H0.729439C0.0215981 4.02053 -0.270295 4.92565 0.306194 5.33114L2.96242 7.21379L1.9189 10.5519C1.70728 11.2253 2.49539 11.7683 3.05729 11.3411L5.75 9.31366L8.44271 11.3484C9.00461 11.7756 9.79272 11.2325 9.5811 10.5591L8.53758 7.22103L11.1938 5.33838C11.7703 4.92565 11.4784 4.02777 10.7706 4.02777H7.52325V4.02053Z" fill="#EE8834"/>
</g>
<g clip-path="url(#clip1_1_1741)">
<path d="M22.0233 4.02053L20.9505 0.515917C20.7389 -0.171972 19.7611 -0.171972 19.5568 0.515917L18.4767 4.02053H15.2294C14.5216 4.02053 14.2297 4.92565 14.8062 5.33114L17.4624 7.21379L16.4189 10.5519C16.2073 11.2253 16.9954 11.7683 17.5573 11.3411L20.25 9.31366L22.9427 11.3484C23.5046 11.7756 24.2927 11.2325 24.0811 10.5591L23.0376 7.22103L25.6938 5.33838C26.2703 4.92565 25.9784 4.02777 25.2706 4.02777H22.0233V4.02053Z" fill="#EE8834"/>
</g>
<g clip-path="url(#clip2_1_1741)">
<path d="M36.5233 4.02053L35.4505 0.515917C35.2389 -0.171972 34.2611 -0.171972 34.0568 0.515917L32.9767 4.02053H29.7294C29.0216 4.02053 28.7297 4.92565 29.3062 5.33114L31.9624 7.21379L30.9189 10.5519C30.7073 11.2253 31.4954 11.7683 32.0573 11.3411L34.75 9.31366L37.4427 11.3484C38.0046 11.7756 38.7927 11.2325 38.5811 10.5591L37.5376 7.22103L40.1938 5.33838C40.7703 4.92565 40.4784 4.02777 39.7706 4.02777H36.5233V4.02053Z" fill="#EE8834"/>
</g>
<g clip-path="url(#clip3_1_1741)">
<path d="M51.0233 4.02053L49.9505 0.515917C49.7389 -0.171972 48.7611 -0.171972 48.5568 0.515917L47.4767 4.02053H44.2294C43.5216 4.02053 43.2297 4.92565 43.8062 5.33114L46.4624 7.21379L45.4189 10.5519C45.2073 11.2253 45.9954 11.7683 46.5573 11.3411L49.25 9.31366L51.9427 11.3484C52.5046 11.7756 53.2927 11.2325 53.0811 10.5591L52.0376 7.22103L54.6938 5.33838C55.2703 4.92565 54.9784 4.02777 54.2706 4.02777H51.0233V4.02053Z" fill="#EE8834"/>
</g>
<g clip-path="url(#clip4_1_1741)">
<path d="M65.5233 4.02053L64.4505 0.515917C64.2389 -0.171972 63.2611 -0.171972 63.0568 0.515917L61.9767 4.02053H58.7294C58.0216 4.02053 57.7297 4.92565 58.3062 5.33114L60.9624 7.21379L59.9189 10.5519C59.7073 11.2253 60.4954 11.7683 61.0573 11.3411L63.75 9.31366L66.4427 11.3484C67.0046 11.7756 67.7927 11.2325 67.5811 10.5591L66.5376 7.22103L69.1938 5.33838C69.7703 4.92565 69.4784 4.02777 68.7706 4.02777H65.5233V4.02053Z" fill="#EE8834"/>
</g>
<defs>
<clipPath id="clip0_1_1741">
<rect width="11.5" height="11.5" fill="white"/>
</clipPath>
<clipPath id="clip1_1_1741">
<rect width="11.5" height="11.5" fill="white" transform="translate(14.5)"/>
</clipPath>
<clipPath id="clip2_1_1741">
<rect width="11.5" height="11.5" fill="white" transform="translate(29)"/>
</clipPath>
<clipPath id="clip3_1_1741">
<rect width="11.5" height="11.5" fill="white" transform="translate(43.5)"/>
</clipPath>
<clipPath id="clip4_1_1741">
<rect width="11.5" height="11.5" fill="white" transform="translate(58)"/>
</clipPath>
</defs>
</svg>
